<?xml version="1.0" standalone="no"?>
<!DOCTYPE svg PUBLIC "-//W3C//DTD SVG 20010904//EN"
 "http://www.w3.org/TR/2001/REC-SVG-20010904/DTD/svg10.dtd">
<svg version="1.0" xmlns="http://www.w3.org/2000/svg"
 width="512.000000pt" height="512.000000pt" viewBox="0 0 512.000000 512.000000"
 preserveAspectRatio="xMidYMid meet">

<g transform="translate(0.000000,512.000000) scale(0.100000,-0.100000)"
fill="#000000" stroke="none">
<path d="M2847 5063 c-4 -3 -7 -55 -7 -115 l0 -109 -135 -177 -135 -176 0
-108 0 -108 -55 0 -55 0 0 -120 0 -120 -85 0 -85 0 0 -535 0 -535 75 0 75 0 0
-981 0 -982 -59 6 c-32 4 -69 11 -83 16 -16 6 -101 107 -223 265 l-198 256
-734 0 -733 0 0 -121 c0 -106 -2 -120 -16 -115 -9 3 -22 6 -30 6 -12 0 -14
172 -12 1227 l3 1228 778 3 777 2 0 -1070 0 -1070 55 0 55 0 0 1120 0 1120
-90 0 -90 0 0 120 0 120 -705 0 -705 0 0 -120 0 -120 -90 0 -90 0 0 -1299 c0
-1258 -1 -1299 -19 -1322 -34 -44 -41 -97 -41 -324 1 -229 7 -273 47 -317 29
-34 100 -61 139 -53 l34 6 0 -110 0 -110 121 -3 121 -3 18 -47 c10 -26 32 -66
50 -88 l32 -40 -331 0 -331 0 0 -55 0 -55 2445 0 2445 0 0 55 0 55 -1236 0
-1236 0 37 42 c19 23 42 63 49 88 l13 45 117 3 117 3 -3 244 c-3 234 -4 245
-25 274 -13 17 -23 32 -23 34 0 2 492 4 1093 4 l1092 -1 0 52 c-1 29 -2 106
-3 172 l-2 120 -65 0 -65 0 0 775 0 775 -55 0 -55 0 0 45 0 45 60 0 60 0 0
120 0 120 -40 25 c-68 43 -196 95 -299 122 -80 21 -119 25 -231 25 -173 0
-285 -27 -450 -110 l-115 -57 -3 -122 -3 -123 66 0 66 0 -3 -42 -3 -43 -57 -3
-58 -3 0 -774 0 -775 -65 0 -65 0 0 -120 0 -120 -120 0 -120 0 0 980 0 980 80
0 80 0 0 535 0 535 -90 0 -90 0 0 120 0 120 -55 0 -55 0 0 110 0 110 -135 176
-135 176 0 114 0 114 -48 0 c-27 0 -52 -3 -55 -7z m135 -436 l77 -102 -79 -3
c-43 -1 -117 -1 -163 0 l-85 3 79 103 c44 56 83 102 87 102 4 -1 42 -47 84
-103z m136 -284 l3 -73 -221 0 -220 0 0 75 0 75 218 -2 217 -3 3 -72z m-401
-245 l2 -68 -74 0 -75 0 0 70 0 71 72 -3 72 -3 3 -67z m253 2 l0 -70 -75 0
-75 0 0 63 c0 35 3 67 7 70 3 4 37 7 75 7 l68 0 0 -70z m258 -2 l3 -68 -76 0
-75 0 0 70 0 71 73 -3 72 -3 3 -67z m-1498 -158 l0 -70 -600 0 -600 0 0 63 c0
35 3 67 7 70 3 4 273 7 600 7 l593 0 0 -70z m1670 -450 l0 -430 -505 0 -505 0
0 430 0 430 505 0 505 0 0 -430z m1032 -314 c88 -17 151 -38 240 -78 58 -26
67 -34 71 -62 2 -17 3 -34 0 -38 -2 -5 -211 -8 -464 -8 l-459 0 0 39 c0 38 1
39 68 68 194 87 369 113 544 79z m-1727 -1196 l0 -975 -77 -3 -78 -3 0 981 0
981 78 -3 77 -3 0 -975z m275 0 l0 -980 -85 0 -85 0 0 973 c0 536 3 977 7 980
3 4 42 7 85 7 l78 0 0 -980z m260 0 l0 -980 -75 0 -75 0 0 980 0 980 75 0 75
0 0 -980z m1380 855 l0 -45 -337 2 -338 3 -3 43 -3 42 340 0 341 0 0 -45z
m110 -870 l0 -725 -50 0 -50 0 -2 673 -3 672 -345 0 -345 0 -3 -672 -2 -673
-50 0 -50 0 0 725 0 725 450 0 450 0 0 -725z m-500 435 l0 -80 -95 0 -95 0 0
80 0 80 95 0 95 0 0 -80z m290 0 l0 -80 -95 0 -95 0 0 80 0 80 95 0 95 0 0
-80z m-292 -267 l3 -83 -96 0 -95 0 0 85 0 86 93 -3 92 -3 3 -82z m292 2 l0
-86 -92 3 -93 3 -3 69 c-2 38 -1 75 2 83 4 9 29 13 96 13 l90 0 0 -85z m-292
-272 l3 -83 -96 0 -95 0 0 85 0 86 93 -3 92 -3 3 -82z m292 2 l0 -86 -92 3
-93 3 -3 69 c-2 38 -1 75 2 83 4 9 29 13 96 13 l90 0 0 -85z m-292 -272 l3
-83 -96 0 -95 0 0 85 0 86 93 -3 92 -3 3 -82z m292 2 l0 -86 -92 3 -93 3 -3
69 c-2 38 -1 75 2 83 4 9 29 13 96 13 l90 0 0 -85z m-2508 -402 c101 -130 188
-243 193 -250 6 -8 120 -38 255 -69 195 -43 249 -59 263 -76 15 -18 17 -40 15
-187 l-3 -166 -63 -3 c-53 -3 -63 0 -68 15 -28 93 -83 161 -158 198 -102 50
-206 43 -302 -20 -54 -35 -110 -111 -120 -163 l-6 -32 -383 0 -383 0 -17 49
c-48 145 -222 232 -371 185 -79 -24 -164 -106 -190 -182 l-19 -52 -67 0 -68 0
0 495 0 495 654 0 654 0 184 -237z m2216 130 l3 -83 -96 0 -95 0 0 85 0 86 93
-3 92 -3 3 -82z m292 2 l0 -85 -95 0 -95 0 0 78 c0 43 3 82 7 85 3 4 46 7 95
7 l88 0 0 -85z m-4122 -137 c9 -9 12 -79 12 -252 0 -209 -2 -242 -17 -258 -20
-22 -51 -23 -75 -1 -16 15 -18 36 -18 254 0 203 2 240 16 253 18 19 65 21 82
4z m4462 -53 c3 -2 3 -33 2 -69 l-4 -66 -579 0 -579 0 0 64 c0 42 4 66 13 69
12 5 1138 6 1147 2z m-3793 -592 c49 -39 71 -78 79 -136 13 -94 -62 -191 -163
-212 -41 -8 -110 11 -152 42 -105 80 -88 262 31 322 64 33 154 26 205 -16z
m1333 17 c47 -24 85 -71 99 -126 43 -162 -143 -301 -286 -214 -57 34 -87 85
-91 156 -4 55 -1 69 22 108 52 89 165 122 256 76z m-369 -274 c10 -27 32 -67
49 -88 l31 -38 -481 0 -482 0 36 41 c19 23 43 64 52 91 l16 48 380 -2 380 -3
19 -49z"/>
<path d="M2779 3862 c-106 -35 -194 -115 -241 -218 -19 -41 -23 -66 -23 -149
0 -91 3 -106 31 -165 74 -157 245 -250 406 -221 131 23 237 101 294 216 27 55
29 69 29 170 0 106 -1 112 -34 172 -41 77 -114 146 -187 180 -76 34 -196 41
-275 15z m234 -115 c105 -44 177 -169 163 -285 -12 -98 -66 -175 -160 -225
-59 -31 -184 -31 -243 1 -99 52 -157 145 -157 252 1 210 200 340 397 257z"/>
<path d="M2840 3572 l0 -98 63 -62 c34 -34 67 -62 72 -62 13 0 65 52 65 65 0
6 -20 31 -45 55 l-45 44 0 78 0 78 -55 0 -55 0 0 -98z"/>
<path d="M640 1085 l0 -255 270 0 270 0 0 255 0 255 -270 0 -270 0 0 -255z
m440 0 l0 -145 -170 0 -170 0 0 145 0 145 170 0 170 0 0 -145z"/>
<path d="M1287 1333 c-4 -3 -7 -118 -7 -255 l0 -248 426 0 c337 0 424 3 418
13 -4 6 -91 121 -192 255 l-184 242 -228 0 c-124 0 -230 -3 -233 -7z m524
-250 l109 -143 -265 0 -265 0 0 145 0 146 156 -3 156 -3 109 -142z"/>
<path d="M1123 4975 c-80 -22 -131 -52 -193 -111 -49 -46 -110 -142 -110 -172
0 -5 -32 -12 -70 -14 -147 -11 -250 -122 -250 -270 l0 -48 255 0 255 0 0 50 0
50 -194 0 c-107 0 -197 4 -200 8 -8 14 35 72 65 87 36 19 115 19 169 0 23 -8
44 -15 45 -15 1 0 6 24 9 53 14 106 83 204 181 255 44 24 62 27 145 27 86 0
100 -3 148 -29 99 -55 154 -136 173 -258 7 -40 13 -75 15 -77 2 -2 25 10 51
26 62 39 94 46 146 32 44 -12 123 -81 112 -99 -4 -6 -91 -10 -244 -10 l-238 0
1 -47 1 -48 298 -3 297 -2 0 57 c-1 99 -56 189 -145 236 -31 17 -58 22 -121
22 l-81 0 -16 45 c-36 98 -141 201 -247 241 -72 27 -188 34 -257 14z"/>
<path d="M4460 4929 c-33 -14 -33 -11 -11 -61 17 -40 22 -45 45 -41 44 9 71
-4 89 -42 9 -20 17 -42 17 -50 0 -11 13 -15 53 -15 54 0 54 0 65 38 17 54 43
75 88 70 35 -4 37 -2 56 41 21 50 17 56 -39 67 -50 9 -100 -4 -137 -36 l-33
-30 -19 22 c-38 43 -117 59 -174 37z"/>
<path d="M3470 4899 c-34 -14 -34 -13 -15 -63 16 -42 20 -45 44 -39 75 21 121
-9 143 -93 l12 -44 53 0 c31 0 53 4 53 11 0 6 10 33 21 60 23 52 64 84 97 75
9 -2 27 -7 39 -11 18 -5 25 1 42 41 12 26 20 48 19 49 -14 10 -79 25 -111 25
-50 0 -120 -33 -142 -66 l-16 -25 -21 26 c-43 56 -148 82 -218 54z"/>
<path d="M4013 4510 c-28 -11 -28 -19 -6 -66 16 -32 21 -35 50 -31 42 7 79
-22 93 -72 10 -38 11 -39 61 -39 38 0 52 4 56 17 26 83 51 106 100 92 30 -9
32 -8 51 39 l20 49 -30 10 c-63 22 -132 9 -175 -31 l-23 -21 -22 20 c-13 11
-33 26 -45 32 -26 13 -99 14 -130 1z"/>
<path d="M1140 4400 l0 -50 75 0 75 0 0 50 0 50 -75 0 -75 0 0 -50z"/>
<path d="M520 3445 l0 -165 55 0 55 0 0 165 0 165 -55 0 -55 0 0 -165z"/>
<path d="M800 3446 l0 -166 55 0 55 0 -2 163 -3 162 -52 3 -53 3 0 -165z"/>
<path d="M1080 3446 l0 -166 55 0 55 0 -2 163 -3 162 -52 3 -53 3 0 -165z"/>
<path d="M1360 3445 l0 -165 50 0 50 0 0 165 0 165 -50 0 -50 0 0 -165z"/>
<path d="M1640 3445 l0 -165 50 0 50 0 0 165 0 165 -50 0 -50 0 0 -165z"/>
<path d="M522 2903 l3 -168 50 0 50 0 0 165 0 165 -53 3 -52 3 2 -168z"/>
<path d="M800 2900 l0 -171 53 3 52 3 0 165 0 165 -52 3 -53 3 0 -171z"/>
<path d="M1080 2900 l0 -171 53 3 52 3 0 165 0 165 -52 3 -53 3 0 -171z"/>
<path d="M1360 2900 l0 -170 50 0 50 0 0 170 0 170 -50 0 -50 0 0 -170z"/>
<path d="M1640 2900 l0 -170 50 0 50 0 0 170 0 170 -50 0 -50 0 0 -170z"/>
<path d="M527 2524 c-4 -4 -7 -81 -7 -171 l0 -164 53 3 52 3 0 165 0 165 -45
3 c-25 2 -49 0 -53 -4z"/>
<path d="M807 2524 c-4 -4 -7 -81 -7 -171 l0 -164 53 3 52 3 0 165 0 165 -45
3 c-25 2 -49 0 -53 -4z"/>
<path d="M1080 2360 l0 -171 53 3 52 3 0 165 0 165 -52 3 -53 3 0 -171z"/>
<path d="M1360 2360 l0 -170 50 0 50 0 0 170 0 170 -50 0 -50 0 0 -170z"/>
<path d="M1640 2360 l0 -170 50 0 50 0 0 170 0 170 -50 0 -50 0 0 -170z"/>
<path d="M520 1815 l0 -165 55 0 55 0 0 165 0 165 -55 0 -55 0 0 -165z"/>
<path d="M800 1815 l0 -165 55 0 55 0 0 165 0 165 -55 0 -55 0 0 -165z"/>
<path d="M1080 1814 l0 -165 53 3 52 3 3 163 2 162 -55 0 -55 0 0 -166z"/>
<path d="M1360 1815 l0 -165 50 0 50 0 0 165 0 165 -50 0 -50 0 0 -165z"/>
<path d="M1640 1815 l0 -165 50 0 50 0 0 165 0 165 -50 0 -50 0 0 -165z"/>
<path d="M2920 535 l0 -55 40 0 40 0 0 55 0 55 -40 0 -40 0 0 -55z"/>
<path d="M3200 535 l0 -55 75 0 75 0 0 55 0 55 -75 0 -75 0 0 -55z"/>
<path d="M3550 535 l0 -55 75 0 75 0 0 55 0 55 -75 0 -75 0 0 -55z"/>
<path d="M3900 535 l0 -55 75 0 75 0 0 55 0 55 -75 0 -75 0 0 -55z"/>
<path d="M4250 535 l0 -55 75 0 75 0 0 55 0 55 -75 0 -75 0 0 -55z"/>
<path d="M4600 535 l0 -55 75 0 75 0 0 55 0 55 -75 0 -75 0 0 -55z"/>
<path d="M4950 535 l0 -55 40 0 40 0 0 55 0 55 -40 0 -40 0 0 -55z"/>
</g>
</svg>
